<svg clip-rule="evenodd" fill-rule="evenodd" stroke-linejoin="round" stroke-miterlimit="2" viewBox="0 0 1925 235" xmlns="http://www.w3.org/2000/svg"><g fill="#cbcbcb" fill-rule="nonzero"><path d="m.382-.259h-.153v.259h-.149v-.72h.313c.072 0 .13.019.173.056s.064.095.064.172c0 .085-.021.145-.064.18-.043.036-.104.053-.184.053zm.07-.15c.02-.017.029-.044.029-.082 0-.037-.009-.064-.029-.08s-.047-.024-.083-.024h-.14v.212h.14c.036 0 .063-.008.083-.026z" transform="matrix(306.66375 0 0 306.66375 -24.41049673 227.4490239)"/><path d="m.076-.72h.151v.591h.356v.129h-.507z" transform="matrix(306.66375 0 0 306.66375 180.13177121 227.4490239)"/><path d="m.498-.148h-.266l-.049.148h-.158l.257-.72h.17l.255.72h-.163zm-.042-.124-.09-.283-.093.283z" transform="matrix(306.66375 0 0 306.66375 367.45425626 227.4490239)"/><path d="m.599-.72v.128h-.215v.592h-.152v-.592h-.216v-.128z" transform="matrix(306.66375 0 0 306.66375 588.91700327 227.4490239)"/><path d="m.586-.592h-.36v.165h.316v.125h-.316v.302h-.15v-.719h.51z" transform="matrix(306.66375 0 0 306.66375 776.23948832 227.4490239)"/><path d="m.395.02c-.103 0-.182-.028-.236-.084-.073-.069-.11-.168-.11-.297 0-.132.037-.231.11-.297.054-.056.133-.084.236-.084.102 0 .181.028.235.084.073.066.109.165.109.297 0 .129-.036.228-.109.297-.054.056-.133.084-.235.084zm.142-.193c.034-.044.052-.107.052-.188s-.018-.143-.053-.187-.082-.066-.141-.066c-.06 0-.108.022-.143.066-.036.044-.053.106-.053.187s.017.144.053.188c.035.044.083.066.143.066.059 0 .106-.022.142-.066z" transform="matrix(306.66375 0 0 306.66375 963.56197337 227.4490239)"/><path d="m.382-.282h-.155v.282h-.147v-.72h.353c.05.001.089.007.116.019.027.011.05.028.069.05.016.018.028.039.037.061s.014.047.014.075c0 .035-.009.068-.026.101s-.046.057-.085.07c.033.014.056.033.07.057.014.025.021.062.021.113v.048c0 .033.001.055.004.067.004.018.013.032.027.041v.018h-.165c-.005-.016-.008-.029-.01-.039-.004-.02-.006-.04-.006-.062l-.001-.066c-.001-.046-.009-.077-.026-.092-.016-.016-.046-.023-.09-.023zm.091-.131c.03-.014.045-.041.045-.081 0-.044-.014-.073-.043-.088-.017-.008-.041-.013-.074-.013h-.174v.194h.17c.034 0 .059-.004.076-.012z" transform="matrix(306.66375 0 0 306.66375 1202.09485136 227.4490239)"/><path d="m.214 0h-.14v-.72h.218l.131.566.13-.566h.217v.72h-.141v-.487c0-.014.001-.033.001-.059 0-.025 0-.044 0-.058l-.136.604h-.146l-.135-.604v.058c.001.026.001.045.001.059z" transform="matrix(306.66375 0 0 306.66375 1423.55759837 227.4490239)"/><path d="m.523-.261v.109h-.08v.152h-.136v-.152h-.281v-.122l.261-.43h.156v.443zm-.394 0h.178v-.306z" transform="matrix(306.66375 0 0 306.66375 1764.2070518 227.4490239)"/></g></svg>