<svg clip-rule="evenodd" fill-rule="evenodd" stroke-linejoin="round" stroke-miterlimit="2" viewBox="0 0 478 37" xmlns="http://www.w3.org/2000/svg"><g fill-rule="nonzero"><path d="m.098 0h.441c.233 0 .289-.115.289-.194 0-.137-.121-.175-.215-.183v-.007c.094-.006.178-.063.178-.154 0-.149-.126-.184-.268-.184h-.425zm.162-.316h.235c.072 0 .159.02.159.103 0 .074-.071.101-.17.101h-.224zm0-.294h.2c.084 0 .157.016.157.094 0 .064-.047.088-.126.088h-.231z" transform="matrix(48 0 0 48 -4.7071 35.565)"/><path d="m.011 0h.174l.076-.162h.416l.083.162h.192l-.369-.722h-.204zm.308-.28.15-.314.15.314z" transform="matrix(48 0 0 48 42.765 35.565)"/><path d="m.086 0h.559v-.118h-.397v-.604h-.162z" transform="matrix(48 0 0 48 93.789 35.565)"/><path d="m.098 0h.441c.233 0 .289-.115.289-.194 0-.137-.121-.175-.215-.183v-.007c.094-.006.178-.063.178-.154 0-.149-.126-.184-.268-.184h-.425zm.162-.316h.235c.072 0 .159.02.159.103 0 .074-.071.101-.17.101h-.224zm0-.294h.2c.084 0 .157.016.157.094 0 .064-.047.088-.126.088h-.231z" transform="matrix(48 0 0 48 130.605 35.565)"/><path d="m.061-.361c0 .253.155.38.421.38s.421-.127.421-.38-.155-.38-.421-.38-.421.127-.421.38zm.168 0c0-.17.097-.262.253-.262.157 0 .253.092.253.262s-.096.262-.253.262c-.156 0-.253-.092-.253-.262z" transform="matrix(48 0 0 48 178.077 35.565)"/><path d="m.011 0h.174l.076-.162h.416l.083.162h.192l-.369-.722h-.204zm.308-.28.15-.314.15.314z" transform="matrix(48 0 0 48 227.949 35.565)"/><path d="m.26-.604h.16c.093 0 .183.015.183.113 0 .078-.068.103-.154.103h-.189zm-.162.604h.162v-.27h.215c.254 0 .296-.136.296-.22 0-.153-.094-.232-.322-.232h-.351z" transform="matrix(48 0 0 48 301.533 35.565)"/><path d="m.011 0h.174l.076-.162h.416l.083.162h.192l-.369-.722h-.204zm.308-.28.15-.314.15.314z" transform="matrix(48 0 0 48 341.037 35.565)"/><path d="m.26-.604h.217c.086 0 .164.012.164.099s-.076.108-.171.108h-.21zm-.162.604h.162v-.285h.171c.158 0 .19.029.197.171.002.042.007.093.016.114h.174c-.011-.028-.019-.065-.022-.125-.008-.134-.021-.208-.186-.215v-.002c.111-.008.199-.06.199-.186 0-.143-.119-.194-.278-.194h-.433z" transform="matrix(48 0 0 48 392.061 35.565)"/><path d="m.093-.722v.722h.162v-.38l.328.38h.214l-.356-.397.318-.325h-.199l-.305.315v-.315z" transform="matrix(48 0 0 48 439.533 35.565)"/></g></svg>