<svg clip-rule="evenodd" fill-rule="evenodd" stroke-linejoin="round" stroke-miterlimit="2" viewBox="0 0 244 37" xmlns="http://www.w3.org/2000/svg"><g fill-rule="nonzero"><path d="m.827-.493c-.008-.194-.208-.248-.361-.248-.25 0-.405.137-.405.38 0 .253.155.38.395.38.186 0 .367-.058.38-.25h-.168c-.009.061-.067.132-.2.132-.101 0-.239-.061-.239-.262s.138-.262.239-.262c.088 0 .187.04.191.13z" transform="matrix(48 0 0 48 -2.931 35.565)"/><path d="m.061-.361c0 .253.155.38.421.38s.421-.127.421-.38-.155-.38-.421-.38-.421.127-.421.38zm.168 0c0-.17.097-.262.253-.262.157 0 .253.092.253.262s-.096.262-.253.262c-.156 0-.253-.092-.253-.262z" transform="matrix(48 0 0 48 44.541 35.565)"/><path d="m.086 0h.559v-.118h-.397v-.604h-.162z" transform="matrix(48 0 0 48 95.613 35.565)"/><path d="m.089-.722v.722h.146v-.62h.002l.289.62h.198l.282-.62h.002v.62h.162v-.722h-.27l-.268.588-.273-.588z" transform="matrix(48 0 0 48 132.429 35.565)"/><path d="m.011 0h.174l.076-.162h.416l.083.162h.192l-.369-.722h-.204zm.308-.28.15-.314.15.314z" transform="matrix(48 0 0 48 197.661 35.565)"/></g></svg>