<svg clip-rule="evenodd" fill-rule="evenodd" stroke-linejoin="round" stroke-miterlimit="2" viewBox="0 0 525 37" xmlns="http://www.w3.org/2000/svg"><g fill-rule="nonzero"><path d="m.658-.722h-.572v.722h.59v-.118h-.428v-.198h.395v-.118h-.395v-.17h.41z" transform="matrix(48 0 0 48 -4.1311 35.565)"/><path d="m.089-.722v.722h.146v-.62h.002l.289.62h.198l.282-.62h.002v.62h.162v-.722h-.27l-.268.588-.273-.588z" transform="matrix(48 0 0 48 36.2369 35.565)"/><path d="m.098 0h.441c.233 0 .289-.115.289-.194 0-.137-.121-.175-.215-.183v-.007c.094-.006.178-.063.178-.154 0-.149-.126-.184-.268-.184h-.425zm.162-.316h.235c.072 0 .159.02.159.103 0 .074-.071.101-.17.101h-.224zm0-.294h.2c.084 0 .157.016.157.094 0 .064-.047.088-.126.088h-.231z" transform="matrix(48 0 0 48 101.469 35.565)"/><path d="m.011 0h.174l.076-.162h.416l.083.162h.192l-.369-.722h-.204zm.308-.28.15-.314.15.314z" transform="matrix(48 0 0 48 148.941 35.565)"/><path d="m.26-.604h.217c.086 0 .164.012.164.099s-.076.108-.171.108h-.21zm-.162.604h.162v-.285h.171c.158 0 .19.029.197.171.002.042.007.093.016.114h.174c-.011-.028-.019-.065-.022-.125-.008-.134-.021-.208-.186-.215v-.002c.111-.008.199-.06.199-.186 0-.143-.119-.194-.278-.194h-.433z" transform="matrix(48 0 0 48 199.965 35.565)"/><path d="m.827-.493c-.008-.194-.208-.248-.361-.248-.25 0-.405.137-.405.38 0 .253.155.38.395.38.186 0 .367-.058.38-.25h-.168c-.009.061-.067.132-.2.132-.101 0-.239-.061-.239-.262s.138-.262.239-.262c.088 0 .187.04.191.13z" transform="matrix(48 0 0 48 247.437 35.565)"/><path d="m.011 0h.174l.076-.162h.416l.083.162h.192l-.369-.722h-.204zm.308-.28.15-.314.15.314z" transform="matrix(48 0 0 48 294.909 35.565)"/><path d="m.248-.604h.159c.142 0 .253.072.253.239 0 .094-.046.247-.252.247h-.16zm-.162.604h.344c.321 0 .398-.218.398-.353 0-.212-.122-.369-.399-.369h-.343z" transform="matrix(48 0 0 48 345.933 35.565)"/><path d="m.658-.722h-.572v.722h.59v-.118h-.428v-.198h.395v-.118h-.395v-.17h.41z" transform="matrix(48 0 0 48 393.405 35.565)"/><path d="m.26-.604h.217c.086 0 .164.012.164.099s-.076.108-.171.108h-.21zm-.162.604h.162v-.285h.171c.158 0 .19.029.197.171.002.042.007.093.016.114h.174c-.011-.028-.019-.065-.022-.125-.008-.134-.021-.208-.186-.215v-.002c.111-.008.199-.06.199-.186 0-.143-.119-.194-.278-.194h-.433z" transform="matrix(48 0 0 48 433.773 35.565)"/><path d="m.061-.361c0 .253.155.38.421.38s.421-.127.421-.38-.155-.38-.421-.38-.421.127-.421.38zm.168 0c0-.17.097-.262.253-.262.157 0 .253.092.253.262s-.096.262-.253.262c-.156 0-.253-.092-.253-.262z" transform="matrix(48 0 0 48 481.245 35.565)"/></g></svg>