<svg clip-rule="evenodd" fill-rule="evenodd" stroke-linejoin="round" stroke-miterlimit="2" viewBox="0 0 353 36" xmlns="http://www.w3.org/2000/svg"><g fill-rule="nonzero"><path d="m.086-.722v.722h.162v-.31h.356v-.118h-.356v-.176h.377v-.118z" transform="matrix(48 0 0 48 -4.131 34.653)"/><path d="m.26-.604h.217c.086 0 .164.012.164.099s-.076.108-.171.108h-.21zm-.162.604h.162v-.285h.171c.158 0 .19.029.197.171.002.042.007.093.016.114h.174c-.011-.028-.019-.065-.022-.125-.008-.134-.021-.208-.186-.215v-.002c.111-.008.199-.06.199-.186 0-.143-.119-.194-.278-.194h-.433z" transform="matrix(48 0 0 48 32.685 34.653)"/><path d="m.082-.259c0 .189.163.278.338.278.318 0 .387-.142.387-.307v-.434h-.162v.437c0 .133-.08.192-.2.192-.124 0-.201-.068-.201-.188v-.441h-.162z" transform="matrix(48 0 0 48 80.157 34.653)"/><path d="m132.621-.003h7.776v34.656h-7.776z" stroke-width="48"/><path d="m.014-.722v.118h.275v.604h.162v-.604h.275v-.118z" transform="matrix(48 0 0 48 150.189 34.653)"/><path d="m.011-.722.341.722h.186l.34-.722h-.168l-.256.57-.257-.57z" transform="matrix(48 0 0 48 190.509 34.653)"/><path d="m.011 0h.174l.076-.162h.416l.083.162h.192l-.369-.722h-.204zm.308-.28.15-.314.15.314z" transform="matrix(48 0 0 48 232.701 34.653)"/><path d="m.086 0h.559v-.118h-.397v-.604h-.162z" transform="matrix(48 0 0 48 283.725 34.653)"/><path d="m.658-.722h-.572v.722h.59v-.118h-.428v-.198h.395v-.118h-.395v-.17h.41z" transform="matrix(48 0 0 48 320.541 34.653)"/></g></svg>