<svg clip-rule="evenodd" fill-rule="evenodd" stroke-linejoin="round" stroke-miterlimit="2" viewBox="0 0 364 35" xmlns="http://www.w3.org/2000/svg"><g fill-rule="nonzero"><path d="m.086 0h.559v-.118h-.397v-.604h-.162z" transform="matrix(48 0 0 48 -4.131 34.653)"/><path d="m.011 0h.174l.076-.162h.416l.083.162h.192l-.369-.722h-.204zm.308-.28.15-.314.15.314z" transform="matrix(48 0 0 48 32.685 34.653)"/><path d="m.086-.722v.722h.162v-.31h.356v-.118h-.356v-.176h.377v-.118z" transform="matrix(48 0 0 48 83.709 34.653)"/><path d="m.011 0h.174l.076-.162h.416l.083.162h.192l-.369-.722h-.204zm.308-.28.15-.314.15.314z" transform="matrix(48 0 0 48 117.885 34.653)"/><path d="m.683-.722-.229.309-.228-.309h-.212l.351.447v.275h.162v-.275l.348-.447z" transform="matrix(48 0 0 48 162.717 34.653)"/><path d="m.658-.722h-.572v.722h.59v-.118h-.428v-.198h.395v-.118h-.395v-.17h.41z" transform="matrix(48 0 0 48 210.189 34.653)"/><path d="m.014-.722v.118h.275v.604h.162v-.604h.275v-.118z" transform="matrix(48 0 0 48 250.557 34.653)"/><path d="m.014-.722v.118h.275v.604h.162v-.604h.275v-.118z" transform="matrix(48 0 0 48 290.877 34.653)"/><path d="m.658-.722h-.572v.722h.59v-.118h-.428v-.198h.395v-.118h-.395v-.17h.41z" transform="matrix(48 0 0 48 331.197 34.653)"/></g></svg>