<svg clip-rule="evenodd" fill-rule="evenodd" stroke-linejoin="round" stroke-miterlimit="2" viewBox="0 0 312 37" xmlns="http://www.w3.org/2000/svg"><g fill-rule="nonzero"><path d="m.089-.722v.722h.146v-.62h.002l.289.62h.198l.282-.62h.002v.62h.162v-.722h-.27l-.268.588-.273-.588z" transform="matrix(48 0 0 48 -4.275 35.565)"/><path d="m65.949.909h7.776v34.656h-7.776z" stroke-width="48"/><path d="m.086 0h.559v-.118h-.397v-.604h-.162z" transform="matrix(48 0 0 48 83.517 35.565)"/><path d="m.26-.604h.16c.093 0 .183.015.183.113 0 .078-.068.103-.154.103h-.189zm-.162.604h.162v-.27h.215c.254 0 .296-.136.296-.22 0-.153-.094-.232-.322-.232h-.351z" transform="matrix(48 0 0 48 120.333 35.565)"/><path d="m169.245.909h7.776v34.656h-7.776z" stroke-width="48"/><path d="m.014-.722v.118h.275v.604h.162v-.604h.275v-.118z" transform="matrix(48 0 0 48 186.813 35.565)"/><path d="m.011 0h.174l.076-.162h.416l.083.162h.192l-.369-.722h-.204zm.308-.28.15-.314.15.314z" transform="matrix(48 0 0 48 223.581 35.565)"/><path d="m.051-.226c0 .155.131.245.34.245.245 0 .373-.088.373-.237 0-.075-.036-.176-.208-.2l-.207-.029c-.064-.009-.105-.032-.105-.088 0-.066.074-.099.141-.099.112 0 .177.034.183.128h.162c-.005-.146-.119-.235-.33-.235-.168 0-.324.067-.324.234 0 .095.063.176.254.202l.149.02c.08.011.117.035.117.087s-.049.11-.183.11c-.128 0-.191-.052-.2-.138z" transform="matrix(48 0 0 48 274.605 35.565)"/></g></svg>