<svg clip-rule="evenodd" fill-rule="evenodd" stroke-linejoin="round" stroke-miterlimit="2" viewBox="0 0 499 37" xmlns="http://www.w3.org/2000/svg"><g fill-rule="nonzero"><path d="m.089-.722v.722h.146v-.62h.002l.289.62h.198l.282-.62h.002v.62h.162v-.722h-.27l-.268.588-.273-.588z" transform="matrix(48 0 0 48 -4.2751 35.565)"/><path d="m.061-.361c0 .253.155.38.421.38s.421-.127.421-.38-.155-.38-.421-.38-.421.127-.421.38zm.168 0c0-.17.097-.262.253-.262.157 0 .253.092.253.262s-.096.262-.253.262c-.156 0-.253-.092-.253-.262z" transform="matrix(48 0 0 48 60.957 35.565)"/><path d="m.089 0h.146v-.564h.002l.419.564h.218v-.722h-.146v.554h-.002l-.409-.554h-.228z" transform="matrix(48 0 0 48 112.029 35.565)"/><path d="m.014-.722v.118h.275v.604h.162v-.604h.275v-.118z" transform="matrix(48 0 0 48 163.053 35.565)"/><path d="m.879-.489c0-.169-.163-.252-.381-.252-.284 0-.437.162-.437.378 0 .262.183.382.452.382.105 0 .263-.02.366-.064v-.337h-.389v.112h.231v.138c-.08.025-.135.033-.198.033-.222 0-.294-.131-.294-.265 0-.188.141-.265.293-.265.08 0 .184.039.189.14z" transform="matrix(48 0 0 48 203.373 35.565)"/><path d="m.061-.361c0 .253.155.38.421.38s.421-.127.421-.38-.155-.38-.421-.38-.421.127-.421.38zm.168 0c0-.17.097-.262.253-.262.157 0 .253.092.253.262s-.096.262-.253.262c-.156 0-.253-.092-.253-.262z" transform="matrix(48 0 0 48 254.397 35.565)"/><path d="m.089-.722v.722h.146v-.62h.002l.289.62h.198l.282-.62h.002v.62h.162v-.722h-.27l-.268.588-.273-.588z" transform="matrix(48 0 0 48 305.469 35.565)"/><path d="m.658-.722h-.572v.722h.59v-.118h-.428v-.198h.395v-.118h-.395v-.17h.41z" transform="matrix(48 0 0 48 370.701 35.565)"/><path d="m.26-.604h.217c.086 0 .164.012.164.099s-.076.108-.171.108h-.21zm-.162.604h.162v-.285h.171c.158 0 .19.029.197.171.002.042.007.093.016.114h.174c-.011-.028-.019-.065-.022-.125-.008-.134-.021-.208-.186-.215v-.002c.111-.008.199-.06.199-.186 0-.143-.119-.194-.278-.194h-.433z" transform="matrix(48 0 0 48 411.069 35.565)"/><path d="m.683-.722-.229.309-.228-.309h-.212l.351.447v.275h.162v-.275l.348-.447z" transform="matrix(48 0 0 48 456.381 35.565)"/></g></svg>