<svg clip-rule="evenodd" fill-rule="evenodd" stroke-linejoin="round" stroke-miterlimit="2" viewBox="0 0 1021 37" xmlns="http://www.w3.org/2000/svg"><g fill-rule="nonzero"><path d="m.089 0h.146v-.564h.002l.419.564h.218v-.722h-.146v.554h-.002l-.409-.554h-.228z" transform="matrix(48 0 0 48 -4.275 35.565)"/><path d="m.061-.361c0 .253.155.38.421.38s.421-.127.421-.38-.155-.38-.421-.38-.421.127-.421.38zm.168 0c0-.17.097-.262.253-.262.157 0 .253.092.253.262s-.096.262-.253.262c-.156 0-.253-.092-.253-.262z" transform="matrix(48 0 0 48 46.749 35.565)"/><path d="m.26-.604h.217c.086 0 .164.012.164.099s-.076.108-.171.108h-.21zm-.162.604h.162v-.285h.171c.158 0 .19.029.197.171.002.042.007.093.016.114h.174c-.011-.028-.019-.065-.022-.125-.008-.134-.021-.208-.186-.215v-.002c.111-.008.199-.06.199-.186 0-.143-.119-.194-.278-.194h-.433z" transform="matrix(48 0 0 48 97.8209 35.565)"/><path d="m.014-.722v.118h.275v.604h.162v-.604h.275v-.118z" transform="matrix(48 0 0 48 144.4289 35.565)"/><path d="m.086 0h.162v-.31h.393v.31h.162v-.722h-.162v.294h-.393v-.294h-.162z" transform="matrix(48 0 0 48 184.74886 35.565)"/><path d="m.827-.493c-.008-.194-.208-.248-.361-.248-.25 0-.405.137-.405.38 0 .253.155.38.395.38.186 0 .367-.058.38-.25h-.168c-.009.061-.067.132-.2.132-.101 0-.239-.061-.239-.262s.138-.262.239-.262c.088 0 .187.04.191.13z" transform="matrix(48 0 0 48 254.7809 35.565)"/><path d="m.061-.361c0 .253.155.38.421.38s.421-.127.421-.38-.155-.38-.421-.38-.421.127-.421.38zm.168 0c0-.17.097-.262.253-.262.157 0 .253.092.253.262s-.096.262-.253.262c-.156 0-.253-.092-.253-.262z" transform="matrix(48 0 0 48 302.253 35.565)"/><path d="m.089 0h.146v-.564h.002l.419.564h.218v-.722h-.146v.554h-.002l-.409-.554h-.228z" transform="matrix(48 0 0 48 353.325 35.565)"/><path d="m.827-.493c-.008-.194-.208-.248-.361-.248-.25 0-.405.137-.405.38 0 .253.155.38.395.38.186 0 .367-.058.38-.25h-.168c-.009.061-.067.132-.2.132-.101 0-.239-.061-.239-.262s.138-.262.239-.262c.088 0 .187.04.191.13z" transform="matrix(48 0 0 48 404.349 35.565)"/><path d="m.061-.361c0 .253.155.38.421.38s.421-.127.421-.38-.155-.38-.421-.38-.421.127-.421.38zm.168 0c0-.17.097-.262.253-.262.157 0 .253.092.253.262s-.096.262-.253.262c-.156 0-.253-.092-.253-.262z" transform="matrix(48 0 0 48 451.821 35.565)"/><path d="m.26-.604h.217c.086 0 .164.012.164.099s-.076.108-.171.108h-.21zm-.162.604h.162v-.285h.171c.158 0 .19.029.197.171.002.042.007.093.016.114h.174c-.011-.028-.019-.065-.022-.125-.008-.134-.021-.208-.186-.215v-.002c.111-.008.199-.06.199-.186 0-.143-.119-.194-.278-.194h-.433z" transform="matrix(48 0 0 48 502.893 35.565)"/><path d="m.248-.604h.159c.142 0 .253.072.253.239 0 .094-.046.247-.252.247h-.16zm-.162.604h.344c.321 0 .398-.218.398-.353 0-.212-.122-.369-.399-.369h-.343z" transform="matrix(48 0 0 48 550.365 35.565)"/><path d="m.01.019h.122l.302-.76h-.122z" transform="matrix(48 0 0 48 620.397 35.565)"/><path d="m.089-.722v.722h.146v-.62h.002l.289.62h.198l.282-.62h.002v.62h.162v-.722h-.27l-.268.588-.273-.588z" transform="matrix(48 0 0 48 669.069 35.565)"/><path d="m.011 0h.174l.076-.162h.416l.083.162h.192l-.369-.722h-.204zm.308-.28.15-.314.15.314z" transform="matrix(48 0 0 48 734.301 35.565)"/><path d="m.26-.604h.217c.086 0 .164.012.164.099s-.076.108-.171.108h-.21zm-.162.604h.162v-.285h.171c.158 0 .19.029.197.171.002.042.007.093.016.114h.174c-.011-.028-.019-.065-.022-.125-.008-.134-.021-.208-.186-.215v-.002c.111-.008.199-.06.199-.186 0-.143-.119-.194-.278-.194h-.433z" transform="matrix(48 0 0 48 785.325 35.565)"/><path d="m.014-.722v.118h.275v.604h.162v-.604h.275v-.118z" transform="matrix(48 0 0 48 831.933 35.565)"/><path d="m877.245.909h7.776v34.656h-7.776z" stroke-width="48"/><path d="m.089 0h.146v-.564h.002l.419.564h.218v-.722h-.146v.554h-.002l-.409-.554h-.228z" transform="matrix(48 0 0 48 894.813 35.565)"/><path d="m.658-.722h-.572v.722h.59v-.118h-.428v-.198h.395v-.118h-.395v-.17h.41z" transform="matrix(48 0 0 48 945.837 35.565)"/><path d="m.027 0h.687v-.118h-.497l.474-.449v-.155h-.632v.118h.442l-.474.451z" transform="matrix(48 0 0 48 986.205 35.565)"/></g></svg>