<svg clip-rule="evenodd" fill-rule="evenodd" stroke-linejoin="round" stroke-miterlimit="2" viewBox="0 0 662 37" xmlns="http://www.w3.org/2000/svg"><g fill-rule="nonzero"><path d="m.26-.604h.16c.093 0 .183.015.183.113 0 .078-.068.103-.154.103h-.189zm-.162.604h.162v-.27h.215c.254 0 .296-.136.296-.22 0-.153-.094-.232-.322-.232h-.351z" transform="matrix(48 0 0 48 -4.7071 35.565)"/><path d="m44.2049.909h7.776v34.656h-7.776z" stroke-width="48"/><path d="m.014-.722v.118h.275v.604h.162v-.604h.275v-.118z" transform="matrix(48 0 0 48 61.7729 35.565)"/><path d="m.014-.722v.118h.275v.604h.162v-.604h.275v-.118z" transform="matrix(48 0 0 48 102.0929 35.565)"/><path d="m.051-.226c0 .155.131.245.34.245.245 0 .373-.088.373-.237 0-.075-.036-.176-.208-.2l-.207-.029c-.064-.009-.105-.032-.105-.088 0-.066.074-.099.141-.099.112 0 .177.034.183.128h.162c-.005-.146-.119-.235-.33-.235-.168 0-.324.067-.324.234 0 .095.063.176.254.202l.149.02c.08.011.117.035.117.087s-.049.11-.183.11c-.128 0-.191-.052-.2-.138z" transform="matrix(48 0 0 48 142.413 35.565)"/><path d="m.098 0h.441c.233 0 .289-.115.289-.194 0-.137-.121-.175-.215-.183v-.007c.094-.006.178-.063.178-.154 0-.149-.126-.184-.268-.184h-.425zm.162-.316h.235c.072 0 .159.02.159.103 0 .074-.071.101-.17.101h-.224zm0-.294h.2c.084 0 .157.016.157.094 0 .064-.047.088-.126.088h-.231z" transform="matrix(48 0 0 48 186.333 35.565)"/><path d="m.082-.259c0 .189.163.278.338.278.318 0 .387-.142.387-.307v-.434h-.162v.437c0 .133-.08.192-.2.192-.124 0-.201-.068-.201-.188v-.441h-.162z" transform="matrix(48 0 0 48 233.805 35.565)"/><path d="m.26-.604h.217c.086 0 .164.012.164.099s-.076.108-.171.108h-.21zm-.162.604h.162v-.285h.171c.158 0 .19.029.197.171.002.042.007.093.016.114h.174c-.011-.028-.019-.065-.022-.125-.008-.134-.021-.208-.186-.215v-.002c.111-.008.199-.06.199-.186 0-.143-.119-.194-.278-.194h-.433z" transform="matrix(48 0 0 48 281.277 35.565)"/><path d="m.879-.489c0-.169-.163-.252-.381-.252-.284 0-.437.162-.437.378 0 .262.183.382.452.382.105 0 .263-.02.366-.064v-.337h-.389v.112h.231v.138c-.08.025-.135.033-.198.033-.222 0-.294-.131-.294-.265 0-.188.141-.265.293-.265.08 0 .184.039.189.14z" transform="matrix(48 0 0 48 328.749 35.565)"/><path d="m.827-.493c-.008-.194-.208-.248-.361-.248-.25 0-.405.137-.405.38 0 .253.155.38.395.38.186 0 .367-.058.38-.25h-.168c-.009.061-.067.132-.2.132-.101 0-.239-.061-.239-.262s.138-.262.239-.262c.088 0 .187.04.191.13z" transform="matrix(48 0 0 48 402.333 35.565)"/><path d="m.658-.722h-.572v.722h.59v-.118h-.428v-.198h.395v-.118h-.395v-.17h.41z" transform="matrix(48 0 0 48 449.805 35.565)"/><path d="m.089 0h.146v-.564h.002l.419.564h.218v-.722h-.146v.554h-.002l-.409-.554h-.228z" transform="matrix(48 0 0 48 490.173 35.565)"/><path d="m.014-.722v.118h.275v.604h.162v-.604h.275v-.118z" transform="matrix(48 0 0 48 541.197 35.565)"/><path d="m.658-.722h-.572v.722h.59v-.118h-.428v-.198h.395v-.118h-.395v-.17h.41z" transform="matrix(48 0 0 48 581.517 35.565)"/><path d="m.26-.604h.217c.086 0 .164.012.164.099s-.076.108-.171.108h-.21zm-.162.604h.162v-.285h.171c.158 0 .19.029.197.171.002.042.007.093.016.114h.174c-.011-.028-.019-.065-.022-.125-.008-.134-.021-.208-.186-.215v-.002c.111-.008.199-.06.199-.186 0-.143-.119-.194-.278-.194h-.433z" transform="matrix(48 0 0 48 621.885 35.565)"/></g></svg>