<svg clip-rule="evenodd" fill-rule="evenodd" stroke-linejoin="round" stroke-miterlimit="2" viewBox="0 0 633 37" xmlns="http://www.w3.org/2000/svg"><g fill-rule="nonzero"><path d="m.658-.722h-.572v.722h.59v-.118h-.428v-.198h.395v-.118h-.395v-.17h.41z" transform="matrix(48 0 0 48 -4.13114 35.565)"/><path d="m.086 0h.559v-.118h-.397v-.604h-.162z" transform="matrix(48 0 0 48 36.2369 35.565)"/><path d="m.827-.493c-.008-.194-.208-.248-.361-.248-.25 0-.405.137-.405.38 0 .253.155.38.395.38.186 0 .367-.058.38-.25h-.168c-.009.061-.067.132-.2.132-.101 0-.239-.061-.239-.262s.138-.262.239-.262c.088 0 .187.04.191.13z" transform="matrix(48 0 0 48 95.6129 35.565)"/><path d="m.658-.722h-.572v.722h.59v-.118h-.428v-.198h.395v-.118h-.395v-.17h.41z" transform="matrix(48 0 0 48 143.085 35.565)"/><path d="m.26-.604h.217c.086 0 .164.012.164.099s-.076.108-.171.108h-.21zm-.162.604h.162v-.285h.171c.158 0 .19.029.197.171.002.042.007.093.016.114h.174c-.011-.028-.019-.065-.022-.125-.008-.134-.021-.208-.186-.215v-.002c.111-.008.199-.06.199-.186 0-.143-.119-.194-.278-.194h-.433z" transform="matrix(48 0 0 48 183.453 35.565)"/><path d="m.26-.604h.217c.086 0 .164.012.164.099s-.076.108-.171.108h-.21zm-.162.604h.162v-.285h.171c.158 0 .19.029.197.171.002.042.007.093.016.114h.174c-.011-.028-.019-.065-.022-.125-.008-.134-.021-.208-.186-.215v-.002c.111-.008.199-.06.199-.186 0-.143-.119-.194-.278-.194h-.433z" transform="matrix(48 0 0 48 230.925 35.565)"/><path d="m283.389.909h7.776v34.656h-7.776z" stroke-width="48"/><path d="m.014-.722v.118h.275v.604h.162v-.604h.275v-.118z" transform="matrix(48 0 0 48 300.957 35.565)"/><path d="m.061-.361c0 .253.155.38.421.38s.421-.127.421-.38-.155-.38-.421-.38-.421.127-.421.38zm.168 0c0-.17.097-.262.253-.262.157 0 .253.092.253.262s-.096.262-.253.262c-.156 0-.253-.092-.253-.262z" transform="matrix(48 0 0 48 340.701 35.565)"/><path d="m.26-.604h.16c.093 0 .183.015.183.113 0 .078-.068.103-.154.103h-.189zm-.162.604h.162v-.27h.215c.254 0 .296-.136.296-.22 0-.153-.094-.232-.322-.232h-.351z" transform="matrix(48 0 0 48 414.333 35.565)"/><path d="m.086 0h.559v-.118h-.397v-.604h-.162z" transform="matrix(48 0 0 48 458.253 35.565)"/><path d="m.011 0h.174l.076-.162h.416l.083.162h.192l-.369-.722h-.204zm.308-.28.15-.314.15.314z" transform="matrix(48 0 0 48 495.069 35.565)"/><path d="m.027 0h.687v-.118h-.497l.474-.449v-.155h-.632v.118h.442l-.474.451z" transform="matrix(48 0 0 48 546.093 35.565)"/><path d="m.011 0h.174l.076-.162h.416l.083.162h.192l-.369-.722h-.204zm.308-.28.15-.314.15.314z" transform="matrix(48 0 0 48 586.461 35.565)"/></g></svg>