<svg clip-rule="evenodd" fill-rule="evenodd" stroke-linejoin="round" stroke-miterlimit="2" viewBox="0 0 268 37" xmlns="http://www.w3.org/2000/svg"><g fill-rule="nonzero"><path d="m.26-.604h.16c.093 0 .183.015.183.113 0 .078-.068.103-.154.103h-.189zm-.162.604h.162v-.27h.215c.254 0 .296-.136.296-.22 0-.153-.094-.232-.322-.232h-.351z" transform="matrix(48 0 0 48 -4.707 35.565)"/><path d="m.061-.361c0 .253.155.38.421.38s.421-.127.421-.38-.155-.38-.421-.38-.421.127-.421.38zm.168 0c0-.17.097-.262.253-.262.157 0 .253.092.253.262s-.096.262-.253.262c-.156 0-.253-.092-.253-.262z" transform="matrix(48 0 0 48 39.213 35.565)"/><path d="m.381-.158h-.002l-.191-.564h-.174l.258.722h.195l.194-.576h.002l.201.576h.199l.256-.722h-.162l-.187.564h-.002l-.195-.564h-.204z" transform="matrix(48 0 0 48 90.285 35.565)"/><path d="m.658-.722h-.572v.722h.59v-.118h-.428v-.198h.395v-.118h-.395v-.17h.41z" transform="matrix(48 0 0 48 159.069 35.565)"/><path d="m.086 0h.559v-.118h-.397v-.604h-.162z" transform="matrix(48 0 0 48 199.437 35.565)"/><path d="m.086 0h.559v-.118h-.397v-.604h-.162z" transform="matrix(48 0 0 48 236.253 35.565)"/></g></svg>