<svg clip-rule="evenodd" fill-rule="evenodd" stroke-linejoin="round" stroke-miterlimit="2" viewBox="0 0 403 37" xmlns="http://www.w3.org/2000/svg"><g fill-rule="nonzero"><path d="m.051-.226c0 .155.131.245.34.245.245 0 .373-.088.373-.237 0-.075-.036-.176-.208-.2l-.207-.029c-.064-.009-.105-.032-.105-.088 0-.066.074-.099.141-.099.112 0 .177.034.183.128h.162c-.005-.146-.119-.235-.33-.235-.168 0-.324.067-.324.234 0 .095.063.176.254.202l.149.02c.08.011.117.035.117.087s-.049.11-.183.11c-.128 0-.191-.052-.2-.138z" transform="matrix(48 0 0 48 -2.451 35.565)"/><path d="m.011 0h.174l.076-.162h.416l.083.162h.192l-.369-.722h-.204zm.308-.28.15-.314.15.314z" transform="matrix(48 0 0 48 41.469 35.565)"/><path d="m.089 0h.146v-.564h.002l.419.564h.218v-.722h-.146v.554h-.002l-.409-.554h-.228z" transform="matrix(48 0 0 48 92.493 35.565)"/><path d="m.098 0h.441c.233 0 .289-.115.289-.194 0-.137-.121-.175-.215-.183v-.007c.094-.006.178-.063.178-.154 0-.149-.126-.184-.268-.184h-.425zm.162-.316h.235c.072 0 .159.02.159.103 0 .074-.071.101-.17.101h-.224zm0-.294h.2c.084 0 .157.016.157.094 0 .064-.047.088-.126.088h-.231z" transform="matrix(48 0 0 48 166.077 35.565)"/><path d="m.26-.604h.217c.086 0 .164.012.164.099s-.076.108-.171.108h-.21zm-.162.604h.162v-.285h.171c.158 0 .19.029.197.171.002.042.007.093.016.114h.174c-.011-.028-.019-.065-.022-.125-.008-.134-.021-.208-.186-.215v-.002c.111-.008.199-.06.199-.186 0-.143-.119-.194-.278-.194h-.433z" transform="matrix(48 0 0 48 213.549 35.565)"/><path d="m.082-.259c0 .189.163.278.338.278.318 0 .387-.142.387-.307v-.434h-.162v.437c0 .133-.08.192-.2.192-.124 0-.201-.068-.201-.188v-.441h-.162z" transform="matrix(48 0 0 48 261.021 35.565)"/><path d="m.089 0h.146v-.564h.002l.419.564h.218v-.722h-.146v.554h-.002l-.409-.554h-.228z" transform="matrix(48 0 0 48 308.493 35.565)"/><path d="m.061-.361c0 .253.155.38.421.38s.421-.127.421-.38-.155-.38-.421-.38-.421.127-.421.38zm.168 0c0-.17.097-.262.253-.262.157 0 .253.092.253.262s-.096.262-.253.262c-.156 0-.253-.092-.253-.262z" transform="matrix(48 0 0 48 359.517 35.565)"/></g></svg>