<svg clip-rule="evenodd" fill-rule="evenodd" stroke-linejoin="round" stroke-miterlimit="2" viewBox="0 0 595 37" xmlns="http://www.w3.org/2000/svg"><g fill-rule="nonzero"><path d="m.051-.226c0 .155.131.245.34.245.245 0 .373-.088.373-.237 0-.075-.036-.176-.208-.2l-.207-.029c-.064-.009-.105-.032-.105-.088 0-.066.074-.099.141-.099.112 0 .177.034.183.128h.162c-.005-.146-.119-.235-.33-.235-.168 0-.324.067-.324.234 0 .095.063.176.254.202l.149.02c.08.011.117.035.117.087s-.049.11-.183.11c-.128 0-.191-.052-.2-.138z" transform="matrix(48 0 0 48 -2.4511 35.565)"/><path d="m.061-.361c0 .253.155.38.421.38s.421-.127.421-.38-.155-.38-.421-.38-.421.127-.421.38zm.168 0c0-.17.097-.262.253-.262.157 0 .253.092.253.262s-.096.262-.253.262c-.156 0-.253-.092-.253-.262z" transform="matrix(48 0 0 48 41.4689 35.565)"/><path d="m.082-.259c0 .189.163.278.338.278.318 0 .387-.142.387-.307v-.434h-.162v.437c0 .133-.08.192-.2.192-.124 0-.201-.068-.201-.188v-.441h-.162z" transform="matrix(48 0 0 48 92.541 35.565)"/><path d="m.014-.722v.118h.275v.604h.162v-.604h.275v-.118z" transform="matrix(48 0 0 48 140.013 35.565)"/><path d="m.086 0h.162v-.31h.393v.31h.162v-.722h-.162v.294h-.393v-.294h-.162z" transform="matrix(48 0 0 48 180.333 35.565)"/><path d="m.086 0h.162v-.31h.393v.31h.162v-.722h-.162v.294h-.393v-.294h-.162z" transform="matrix(48 0 0 48 250.365 35.565)"/><path d="m.011 0h.174l.076-.162h.416l.083.162h.192l-.369-.722h-.204zm.308-.28.15-.314.15.314z" transform="matrix(48 0 0 48 297.837 35.565)"/><path d="m.683-.722-.229.309-.228-.309h-.212l.351.447v.275h.162v-.275l.348-.447z" transform="matrix(48 0 0 48 342.669 35.565)"/><path d="m.381-.158h-.002l-.191-.564h-.174l.258.722h.195l.194-.576h.002l.201.576h.199l.256-.722h-.162l-.187.564h-.002l-.195-.564h-.204z" transform="matrix(48 0 0 48 390.141 35.565)"/><path d="m.011 0h.174l.076-.162h.416l.083.162h.192l-.369-.722h-.204zm.308-.28.15-.314.15.314z" transform="matrix(48 0 0 48 455.949 35.565)"/><path d="m.26-.604h.217c.086 0 .164.012.164.099s-.076.108-.171.108h-.21zm-.162.604h.162v-.285h.171c.158 0 .19.029.197.171.002.042.007.093.016.114h.174c-.011-.028-.019-.065-.022-.125-.008-.134-.021-.208-.186-.215v-.002c.111-.008.199-.06.199-.186 0-.143-.119-.194-.278-.194h-.433z" transform="matrix(48 0 0 48 506.973 35.565)"/><path d="m.248-.604h.159c.142 0 .253.072.253.239 0 .094-.046.247-.252.247h-.16zm-.162.604h.344c.321 0 .398-.218.398-.353 0-.212-.122-.369-.399-.369h-.343z" transform="matrix(48 0 0 48 554.445 35.565)"/></g></svg>