<svg clip-rule="evenodd" fill-rule="evenodd" stroke-linejoin="round" stroke-miterlimit="2" viewBox="0 0 529 37" xmlns="http://www.w3.org/2000/svg"><g fill-rule="nonzero"><path d="m.381-.158h-.002l-.191-.564h-.174l.258.722h.195l.194-.576h.002l.201.576h.199l.256-.722h-.162l-.187.564h-.002l-.195-.564h-.204z" transform="matrix(48 0 0 48 -.6751 35.565)"/><path d="m.011 0h.174l.076-.162h.416l.083.162h.192l-.369-.722h-.204zm.308-.28.15-.314.15.314z" transform="matrix(48 0 0 48 65.133 35.565)"/><path d="m.086 0h.559v-.118h-.397v-.604h-.162z" transform="matrix(48 0 0 48 116.157 35.565)"/><path d="m.089 0h.146v-.564h.002l.419.564h.218v-.722h-.146v.554h-.002l-.409-.554h-.228z" transform="matrix(48 0 0 48 152.973 35.565)"/><path d="m.082-.259c0 .189.163.278.338.278.318 0 .387-.142.387-.307v-.434h-.162v.437c0 .133-.08.192-.2.192-.124 0-.201-.068-.201-.188v-.441h-.162z" transform="matrix(48 0 0 48 203.997 35.565)"/><path d="m.014-.722v.118h.275v.604h.162v-.604h.275v-.118z" transform="matrix(48 0 0 48 251.469 35.565)"/><path d="m.827-.493c-.008-.194-.208-.248-.361-.248-.25 0-.405.137-.405.38 0 .253.155.38.395.38.186 0 .367-.058.38-.25h-.168c-.009.061-.067.132-.2.132-.101 0-.239-.061-.239-.262s.138-.262.239-.262c.088 0 .187.04.191.13z" transform="matrix(48 0 0 48 314.349 35.565)"/><path d="m.26-.604h.217c.086 0 .164.012.164.099s-.076.108-.171.108h-.21zm-.162.604h.162v-.285h.171c.158 0 .19.029.197.171.002.042.007.093.016.114h.174c-.011-.028-.019-.065-.022-.125-.008-.134-.021-.208-.186-.215v-.002c.111-.008.199-.06.199-.186 0-.143-.119-.194-.278-.194h-.433z" transform="matrix(48 0 0 48 361.821 35.565)"/><path d="m.658-.722h-.572v.722h.59v-.118h-.428v-.198h.395v-.118h-.395v-.17h.41z" transform="matrix(48 0 0 48 409.293 35.565)"/><path d="m.658-.722h-.572v.722h.59v-.118h-.428v-.198h.395v-.118h-.395v-.17h.41z" transform="matrix(48 0 0 48 449.661 35.565)"/><path d="m.093-.722v.722h.162v-.38l.328.38h.214l-.356-.397.318-.325h-.199l-.305.315v-.315z" transform="matrix(48 0 0 48 490.029 35.565)"/></g></svg>