<svg clip-rule="evenodd" fill-rule="evenodd" stroke-linejoin="round" stroke-miterlimit="2" viewBox="0 0 460 37" xmlns="http://www.w3.org/2000/svg"><g fill-rule="nonzero"><path d="m.381-.158h-.002l-.191-.564h-.174l.258.722h.195l.194-.576h.002l.201.576h.199l.256-.722h-.162l-.187.564h-.002l-.195-.564h-.204z" transform="matrix(48 0 0 48 -.6751 35.565)"/><path d="m.658-.722h-.572v.722h.59v-.118h-.428v-.198h.395v-.118h-.395v-.17h.41z" transform="matrix(48 0 0 48 68.109 35.565)"/><path d="m.051-.226c0 .155.131.245.34.245.245 0 .373-.088.373-.237 0-.075-.036-.176-.208-.2l-.207-.029c-.064-.009-.105-.032-.105-.088 0-.066.074-.099.141-.099.112 0 .177.034.183.128h.162c-.005-.146-.119-.235-.33-.235-.168 0-.324.067-.324.234 0 .095.063.176.254.202l.149.02c.08.011.117.035.117.087s-.049.11-.183.11c-.128 0-.191-.052-.2-.138z" transform="matrix(48 0 0 48 108.477 35.565)"/><path d="m.014-.722v.118h.275v.604h.162v-.604h.275v-.118z" transform="matrix(48 0 0 48 152.397 35.565)"/><path d="m.248-.604h.159c.142 0 .253.072.253.239 0 .094-.046.247-.252.247h-.16zm-.162.604h.344c.321 0 .398-.218.398-.353 0-.212-.122-.369-.399-.369h-.343z" transform="matrix(48 0 0 48 215.277 35.565)"/><path d="m.082-.259c0 .189.163.278.338.278.318 0 .387-.142.387-.307v-.434h-.162v.437c0 .133-.08.192-.2.192-.124 0-.201-.068-.201-.188v-.441h-.162z" transform="matrix(48 0 0 48 262.749 35.565)"/><path d="m.098 0h.441c.233 0 .289-.115.289-.194 0-.137-.121-.175-.215-.183v-.007c.094-.006.178-.063.178-.154 0-.149-.126-.184-.268-.184h-.425zm.162-.316h.235c.072 0 .159.02.159.103 0 .074-.071.101-.17.101h-.224zm0-.294h.2c.084 0 .157.016.157.094 0 .064-.047.088-.126.088h-.231z" transform="matrix(48 0 0 48 310.221 35.565)"/><path d="m.086 0h.559v-.118h-.397v-.604h-.162z" transform="matrix(48 0 0 48 357.693 35.565)"/><path d="m399.501.909h7.776v34.656h-7.776z" stroke-width="48"/><path d="m.089 0h.146v-.564h.002l.419.564h.218v-.722h-.146v.554h-.002l-.409-.554h-.228z" transform="matrix(48 0 0 48 417.069 35.565)"/></g></svg>