<svg clip-rule="evenodd" fill-rule="evenodd" stroke-linejoin="round" stroke-miterlimit="1.41421" viewBox="0 0 6809 2384" xmlns="http://www.w3.org/2000/svg" xmlns:xlink="http://www.w3.org/1999/xlink"><linearGradient id="a" gradientTransform="matrix(0 888.436 -10093.5 0 3038.46 508.947)" gradientUnits="userSpaceOnUse" x1="0" x2="1" y1="0" y2="0"><stop offset="0" stop-opacity=".301961"/><stop offset="1" stop-color="#4d4d4d" stop-opacity="0"/></linearGradient><path d="m147.012 340.981h2346.46v1055.58h-2346.46z" fill="#1f1814" transform="matrix(2.85891 0 0 2.21048 -370.293 -703.73)"/><g fill="#b1a080"><path d="m143.942 352.056h-37.185v984.044c0 11.84 16.662 21.47 37.185 21.47z" transform="matrix(1.34464 0 0 2.32884 -143.543 -778.21)"/><path d="m143.942 352.056h-37.185v1005.514c20.523 0 37.185-9.63 37.185-21.47z" transform="matrix(1.34464 0 0 2.32884 6614.787 -778.21)"/><path d="m143.942 359.44c0-4.075-16.662-7.384-37.185-7.384v1005.514c20.523 0 37.185-3.31 37.185-7.39z" transform="matrix(0 -1.34464 6.77103 0 -2383.773 193.55)"/></g><path d="m1649.4 497.154h2566.01v941.091h-2566.01z" fill-opacity=".301961" transform="matrix(.0194855 0 0 .177099 -32.14 295.2877)"/><path d="m1649.4 497.154h2566.01v941.091h-2566.01z" fill="url(#a)" transform="matrix(.0194855 0 0 .10626 -32.14 497.173)"/><path d="m1649.4 497.154h2566.01v941.091h-2566.01z" fill="url(#a)" transform="matrix(-.0194855 0 0 -.10626 82.14 436.161)"/><path d="m1649.4 497.154h2566.01v941.091h-2566.01z" fill-opacity=".301961" transform="matrix(.0194855 0 0 .177099 6726.197 295.2877)"/><path d="m1649.4 497.154h2566.01v941.091h-2566.01z" fill="url(#a)" transform="matrix(.0194855 0 0 .10626 6726.197 497.173)"/><path d="m1649.4 497.154h2566.01v941.091h-2566.01z" fill="url(#a)" transform="matrix(-.0194855 0 0 -.10626 6840.477 436.161)"/><path d="m2345.19 478.438c0-7.737-5.06-14.019-11.29-14.019h-1981.079c-6.232 0-11.291 6.282-11.291 14.019v672.932c0 7.74 5.059 14.02 11.291 14.02h1981.079c6.23 0 11.29-6.28 11.29-14.02z" fill="#0b0705" transform="matrix(3.01116 0 0 2.4252 -640.8989 -717.975)"/><path d="m1187.5 2500 229.17-1012.5 200-41.67-.16-820.83h-429.01z" fill-opacity=".301961" transform="translate(-1137.5 -575)"/><path d="m1187.5 2500 229.17-1012.5 200-41.67-.16-820.83h-429.01z" fill-opacity=".301961" transform="matrix(-1 0 0 1 7945.837 -575)"/><path d="m1649.4 497.154h2566.01v941.091h-2566.01z" fill-opacity=".301961" transform="matrix(2.27981 0 0 .872214 -3281.153 -383.625)"/></svg>